<?xml version="1.0" encoding="UTF-8"?>
<svg width="79px" height="79px" viewBox="0 0 79 79" version="1.1" xmlns="http://www.w3.org/2000/svg" xmlns:xlink="http://www.w3.org/1999/xlink">
    <!-- Generator: Sketch 53.2 (72643) - https://sketchapp.com -->
    <title>ic-fb</title>
    <desc>Created with Sketch.</desc>
    <defs>
        <path d="M40.661676,1.211517 C62.269317,1.211517 79.785729,18.728253 79.785729,40.336056 C79.785729,61.943211 62.269317,79.459785 40.661676,79.459785 C19.054035,79.459785 1.537542,61.943211 1.537542,40.336056 C1.537542,18.728253 19.054035,1.211517 40.661676,1.211517 Z" id="path-1"></path>
    </defs>
    <g id="Pages" stroke="none" stroke-width="1" fill="none" fill-rule="evenodd">
        <g id="Index" transform="translate(-231.000000, -2328.000000)">
            <g id="social-media-footer" transform="translate(139.000000, 2327.000000)">
                <g id="ic-fb" transform="translate(91.000000, 0.000000)">
                    <g id="Shape-2-copy-4">
                        <use fill="#FFFFFF" xlink:href="#path-1"></use>
                        <use fill="#E1E1E1" xlink:href="#path-1"></use>
                    </g>
                    <g id="fb-icon" transform="translate(35.000000, 29.000000)" fill="#FFFFFF">
                        <g id="Shape">
                            <path d="M12,4 L12,0 L8,0 C5.790861,-1.3527075e-16 4,1.790861 4,4 L4,8 L0,8 L0,12 L4,12 L4,22 L8,22 L8,12 L12,12 L12,8 L8,8 L8,4 L12,4 Z" fill-rule="nonzero"></path>
                        </g>
                    </g>
                </g>
            </g>
        </g>
    </g>
</svg>