<?xml version="1.0" encoding="UTF-8"?>
<svg width="79px" height="79px" viewBox="0 0 79 79" version="1.1" xmlns="http://www.w3.org/2000/svg" xmlns:xlink="http://www.w3.org/1999/xlink">
    <!-- Generator: Sketch 53.2 (72643) - https://sketchapp.com -->
    <title>ic-vk</title>
    <desc>Created with Sketch.</desc>
    <defs>
        <path d="M40.661676,1.211517 C62.269236,1.211517 79.785648,18.728253 79.785648,40.336056 C79.785648,61.943211 62.269236,79.459785 40.661676,79.459785 C19.054116,79.459785 1.537542,61.943211 1.537542,40.336056 C1.537542,18.728253 19.054116,1.211517 40.661676,1.211517 Z" id="path-1"></path>
    </defs>
    <g id="Pages" stroke="none" stroke-width="1" fill="none" fill-rule="evenodd">
        <g id="Index" transform="translate(-140.000000, -2328.000000)">
            <g id="social-media-footer" transform="translate(139.000000, 2327.000000)">
                <g id="ic-vk">
                    <g id="Shape-2-copy-3">
                        <use fill="#FFFFFF" xlink:href="#path-1"></use>
                        <use fill="#E1E1E1" xlink:href="#path-1"></use>
                    </g>
                    <g id="vk-icon" transform="translate(28.000000, 32.000000)" fill="#FFFFFF">
                        <g id="Shape">
                            <path d="M16.138,12.51 C17.094,12.201 18.318,14.55 19.621,15.449 C20.599,16.13 21.348,15.983 21.348,15.983 L24.821,15.933 C24.821,15.933 26.636,15.821 25.778,14.379 C25.707,14.259 25.275,13.31 23.193,11.357 C21.016,9.314 21.311,9.645 23.932,6.113 C25.529,3.96 26.168,2.645 25.968,2.085 C25.776,1.546 24.603,1.686 24.603,1.686 L20.69,1.713 C20.309,1.714 19.986,1.832 19.839,2.228 C19.836,2.232 19.218,3.894 18.394,5.307 C16.653,8.296 15.958,8.455 15.67,8.268 C15.009,7.835 15.176,6.531 15.176,5.604 C15.176,2.707 15.608,1.499 14.33,1.187 C13.903,1.083 13.591,1.015 12.502,1.005 C11.11,0.984 9.928,1.005 9.258,1.334 C8.813,1.557 8.472,2.046 8.679,2.074 C8.939,2.109 9.522,2.234 9.834,2.66 C10.235,3.212 10.223,4.449 10.223,4.449 C10.223,4.449 10.452,7.86 9.683,8.283 C9.155,8.573 8.433,7.981 6.88,5.267 C6.087,3.879 5.488,2.345 5.488,2.345 C5.488,2.345 5.372,2.06 5.162,1.904 C4.912,1.719 4.562,1.66 4.562,1.66 L0.848,1.684 C0.848,1.684 0.29,1.7 0.085,1.946 C-0.097,2.164 0.07,2.614 0.07,2.614 C0.07,2.614 2.979,9.495 6.273,12.961 C9.293,16.143 12.725,15.932 12.725,15.932 L14.28,15.932 C14.28,15.932 14.749,15.878 14.989,15.62 C15.213,15.38 15.203,14.929 15.203,14.929 C15.203,14.929 15.172,12.82 16.138,12.51 Z" fill-rule="nonzero"></path>
                        </g>
                    </g>
                </g>
            </g>
        </g>
    </g>
</svg>